<?xml version="1.0" encoding="UTF-8" standalone="no"?>
<!DOCTYPE svg PUBLIC "-//W3C//DTD SVG 1.1//EN" "http://www.w3.org/Graphics/SVG/1.1/DTD/svg11.dtd">
<svg width="100%" height="100%" viewBox="0 0 1701 1701" version="1.1" xmlns="http://www.w3.org/2000/svg" xmlns:xlink="http://www.w3.org/1999/xlink" xml:space="preserve" xmlns:serif="http://www.serif.com/" style="fill-rule:evenodd;clip-rule:evenodd;stroke-linejoin:round;stroke-miterlimit:2;">
    <g id="bg">
        <g transform="matrix(1.32436,0,0,1.29903,395.937,1344.59)">
            <g>
                <path d="M41.841,24.326C34.705,24.326 27.732,22.704 20.92,19.461C14.109,16.217 8.271,10.866 3.406,3.406C-1.46,-4.054 -3.892,-11.352 -3.892,-18.488C-3.892,-37.3 13.947,-93.088 49.625,-185.851C107.359,-337.646 136.226,-415.49 136.226,-419.382C136.226,-421.328 129.739,-436.897 116.765,-466.088C84.979,-533.552 57.41,-606.206 34.057,-684.05C29.516,-698.321 27.245,-708.7 27.245,-715.187C27.245,-721.674 28.867,-728.486 32.11,-735.621C42.49,-754.433 56.437,-763.84 73.951,-763.84C76.546,-763.84 83.357,-763.191 94.385,-761.893C105.413,-760.596 115.144,-747.622 123.577,-722.972C132.01,-693.132 143.362,-659.075 157.633,-620.802C175.148,-572.799 184.23,-548.797 184.878,-548.797C186.824,-548.797 192.338,-561.122 201.42,-585.772C239.044,-679.833 264.344,-737.243 277.318,-758.001C290.291,-774.867 305.86,-783.3 324.024,-783.3C335.7,-783.3 346.404,-778.597 356.134,-769.191C365.865,-759.785 370.73,-748.271 370.73,-734.648C370.73,-723.62 366.513,-713.241 358.08,-703.511C346.404,-689.24 308.131,-596.476 243.261,-425.22L261.749,-382.406C276.669,-348.025 293.535,-300.671 312.347,-240.342C318.185,-222.178 324.024,-205.961 329.862,-191.69C338.295,-170.283 353.864,-139.47 376.568,-99.25L388.245,-76.87C396.678,-64.545 400.894,-53.193 400.894,-42.814C400.894,-38.273 399.921,-33.732 397.975,-29.191C388.245,-7.136 373,3.892 352.242,3.892L342.511,2.919C333.43,2.27 323.861,-4.541 313.807,-17.515C303.752,-30.489 290.616,-52.869 274.398,-84.655C259.478,-113.846 247.964,-138.01 239.855,-157.147C231.747,-176.283 222.178,-204.339 211.151,-241.315C200.123,-273.75 194.284,-289.967 193.636,-289.967C192.338,-289.967 186.824,-276.993 177.094,-251.045L161.525,-209.204C131.685,-131.361 113.197,-81.411 106.062,-59.356C96.98,-32.11 89.196,-12.001 82.709,0.973C73.627,16.542 60.004,24.326 41.841,24.326Z" style="fill-rule:nonzero;"/>
                <path d="M524.471,-363.918C525.119,-363.918 527.228,-365.216 530.796,-367.811C534.363,-370.405 538.742,-373.325 543.932,-376.568C558.852,-387.596 570.366,-400.083 578.475,-414.03C586.583,-427.977 593.557,-446.952 599.395,-470.953C610.423,-514.416 615.937,-550.419 615.937,-578.961C615.937,-593.232 614.639,-605.558 612.045,-615.937C610.099,-631.506 592.259,-647.723 558.527,-664.589L532.255,-678.212C532.255,-609.45 531.282,-560.473 529.336,-531.282C526.092,-461.872 524.471,-412.246 524.471,-382.406L524.471,-363.918ZM470.953,10.703L466.088,10.703C458.952,10.703 452.465,9.406 446.627,6.811C435.599,0.973 427.491,-7.46 422.301,-18.488C419.706,-23.677 418.409,-33.408 418.409,-47.679C418.409,-89.844 418.733,-125.198 419.382,-153.741L423.274,-279.264C423.923,-281.21 424.572,-292.238 425.22,-312.347L433.978,-579.934C435.924,-618.207 436.897,-662.319 436.897,-712.268C436.897,-724.593 437.545,-737.892 438.843,-752.163C440.789,-775.516 453.763,-789.787 477.765,-794.977L481.657,-794.977C490.09,-794.977 503.064,-792.058 520.579,-786.22C561.446,-771.948 600.693,-753.136 638.317,-729.783C675.941,-706.43 698.97,-674.968 707.403,-635.398C709.998,-623.721 711.295,-608.477 711.295,-589.665L711.295,-563.392C711.295,-549.121 709.673,-531.931 706.43,-511.821C694.105,-424.896 669.779,-363.918 633.452,-328.889C610.747,-306.185 572.474,-277.966 518.632,-244.234L516.686,-209.204C515.389,-188.446 514.74,-152.444 514.74,-101.197L515.713,-66.167C515.713,-38.273 513.929,-21.083 510.362,-14.596C506.794,-8.109 501.766,-2.433 495.279,2.433C488.792,7.298 480.684,10.055 470.953,10.703Z" style="fill-rule:nonzero;"/>
            </g>
        </g>
        <g transform="matrix(1.12378,0,0,1.11755,-184.325,-153.04)">
            <path d="M903.244,160.541C1307.25,160.541 1634.64,483.837 1634.64,881.267C1634.64,1278.7 1307.25,1601.99 903.244,1601.99C499.234,1601.99 171.845,1278.7 171.845,881.267C171.845,483.837 499.234,160.541 903.244,160.541ZM903.244,274.599C562.515,274.599 285.271,546.088 285.271,881.267C285.271,1216.45 562.515,1487.94 903.244,1487.94C1243.97,1487.94 1521.22,1216.45 1521.22,881.267C1521.22,546.088 1243.97,274.599 903.244,274.599Z"/>
        </g>
    </g>
</svg>
